# This file uses centimeters as units for non-parametric coordinates.

v -0.500000 -0.500000 0.500000
v 0.500000 -0.500000 0.500000
v -0.500000 0.500000 0.500000
v 0.500000 0.500000 0.500000
v -0.500000 0.500000 -0.500000
v 0.500000 0.500000 -0.500000
v -0.500000 -0.500000 -0.500000
v 0.500000 -0.500000 -0.500000
vt 0.006821 0.005998
vt 0.994185 0.005998
vt 0.006821 0.993362
vt 0.994185 0.993362
vt 0.006785 0.005998
vt 0.994149 0.005998
vt 0.006785 0.993362
vt 0.994149 0.993362
vt 0.006509 0.006574
vt 0.993873 0.006574
vt 0.006509 0.993938
vt 0.993873 0.993938
vt 0.006490 0.006382
vt 0.993854 0.006382
vt 0.006490 0.993746
vt 0.993854 0.993746
vt 0.006224 0.006574
vt 0.993588 0.006574
vt 0.006224 0.993938
vt 0.993588 0.993938
vt 0.005845 0.006382
vt 0.993209 0.006382
vt 0.005845 0.993746
vt 0.993209 0.993746
vn 0.000000 0.000000 1.000000
vn 0.000000 0.000000 1.000000
vn 0.000000 0.000000 1.000000
vn 0.000000 0.000000 1.000000
vn 0.000000 1.000000 0.000000
vn 0.000000 1.000000 0.000000
vn 0.000000 1.000000 0.000000
vn 0.000000 1.000000 0.000000
vn 0.000000 0.000000 -1.000000
vn 0.000000 0.000000 -1.000000
vn 0.000000 0.000000 -1.000000
vn 0.000000 0.000000 -1.000000
vn 0.000000 -1.000000 0.000000
vn 0.000000 -1.000000 0.000000
vn 0.000000 -1.000000 0.000000
vn 0.000000 -1.000000 0.000000
vn 1.000000 0.000000 0.000000
vn 1.000000 0.000000 0.000000
vn 1.000000 0.000000 0.000000
vn 1.000000 0.000000 0.000000
vn -1.000000 0.000000 0.000000
vn -1.000000 0.000000 0.000000
vn -1.000000 0.000000 0.000000
vn -1.000000 0.000000 0.000000
f 1/17/1 2/18/2 3/19/3
f 3/19/3 2/18/2 4/20/4
f 3/9/5 4/10/6 5/11/7
f 5/11/7 4/10/6 6/12/8
f 5/21/9 6/22/10 7/23/11
f 7/23/11 6/22/10 8/24/12
f 7/13/13 8/14/14 1/15/15
f 1/15/15 8/14/14 2/16/16
f 2/1/17 8/2/18 4/3/19
f 4/3/19 8/2/18 6/4/20
f 7/5/21 1/6/22 5/7/23
f 5/7/23 1/6/22 3/8/24
