# This file uses centimeters as units for non-parametric coordinates.

v 0.000000 0.501265 0.850651
v 0.850651 1.026996 0.525731
v 0.850651 1.026996 -0.525731
v -0.850651 1.026996 -0.525731
v -0.850651 1.026996 0.525731
v -0.525731 1.877647 0.000000
v 0.525731 1.877647 0.000000
v 0.525731 0.176345 0.000000
v -0.525731 0.176345 0.000000
v 0.000000 0.501265 -0.850651
v 0.000000 1.552727 -0.850651
v 0.000000 1.552727 0.850651
vn 0.934172 0.356822 0.000000
vn 0.934172 0.356822 0.000000
vn 0.934172 0.356822 0.000000
vn 0.934172 -0.356822 0.000000
vn 0.934172 -0.356822 0.000000
vn 0.934172 -0.356822 0.000000
vn -0.934172 0.356822 0.000000
vn -0.934172 0.356822 0.000000
vn -0.934172 0.356822 0.000000
vn -0.934172 -0.356822 0.000000
vn -0.934172 -0.356822 0.000000
vn -0.934172 -0.356822 0.000000
vn 0.000000 0.934172 0.356822
vn 0.000000 0.934172 0.356822
vn 0.000000 0.934172 0.356822
vn 0.000000 0.934172 -0.356822
vn 0.000000 0.934172 -0.356822
vn 0.000000 0.934172 -0.356822
vn 0.356822 0.000000 -0.934172
vn 0.356822 0.000000 -0.934172
vn 0.356822 0.000000 -0.934172
vn -0.356822 0.000000 -0.934172
vn -0.356822 0.000000 -0.934172
vn -0.356822 0.000000 -0.934172
vn 0.000000 -0.934172 -0.356822
vn 0.000000 -0.934172 -0.356822
vn 0.000000 -0.934172 -0.356822
vn 0.000000 -0.934172 0.356822
vn 0.000000 -0.934172 0.356822
vn 0.000000 -0.934172 0.356822
vn 0.356822 0.000000 0.934172
vn 0.356822 0.000000 0.934172
vn 0.356822 0.000000 0.934172
vn -0.356822 0.000000 0.934172
vn -0.356822 0.000000 0.934172
vn -0.356822 0.000000 0.934172
vn 0.577350 0.577350 -0.577350
vn 0.577350 0.577350 -0.577350
vn 0.577350 0.577350 -0.577350
vn 0.577350 0.577350 0.577350
vn 0.577350 0.577350 0.577350
vn 0.577350 0.577350 0.577350
vn -0.577350 0.577350 -0.577350
vn -0.577350 0.577350 -0.577350
vn -0.577350 0.577350 -0.577350
vn -0.577350 0.577350 0.577350
vn -0.577350 0.577350 0.577350
vn -0.577350 0.577350 0.577350
vn 0.577350 -0.577350 -0.577350
vn 0.577350 -0.577350 -0.577350
vn 0.577350 -0.577350 -0.577350
vn 0.577350 -0.577350 0.577350
vn 0.577350 -0.577350 0.577350
vn 0.577350 -0.577350 0.577350
vn -0.577350 -0.577350 -0.577350
vn -0.577350 -0.577350 -0.577350
vn -0.577350 -0.577350 -0.577350
vn -0.577350 -0.577350 0.577350
vn -0.577350 -0.577350 0.577350
vn -0.577350 -0.577350 0.577350
f 2//1 3//2 7//3
f 2//4 8//5 3//6
f 4//7 5//8 6//9
f 5//10 4//11 9//12
f 7//13 6//14 12//15
f 6//16 7//17 11//18
f 10//19 11//20 3//21
f 11//22 10//23 4//24
f 8//25 9//26 10//27
f 9//28 8//29 1//30
f 12//31 1//32 2//33
f 1//34 12//35 5//36
f 7//37 3//38 11//39
f 2//40 7//41 12//42
f 4//43 6//44 11//45
f 6//46 5//47 12//48
f 3//49 8//50 10//51
f 8//52 2//53 1//54
f 4//55 10//56 9//57
f 5//58 9//59 1//60
